<svg width="1024" height="1024" viewBox="0 0 1024 1024" fill="none" xmlns="http://www.w3.org/2000/svg">
<g clip-path="url(#clip0_612_617)">
<rect width="1024" height="1024" fill="url(#paint0_linear_612_617)"/>
<path fill-rule="evenodd" clip-rule="evenodd" d="M859.42 353.491C876.953 395.835 885.979 441.233 885.979 487.067H774.273C774.273 455.902 768.138 425.027 756.2 396.229C744.282 367.432 726.791 341.274 704.745 319.229C682.699 297.184 656.536 279.711 627.751 267.785C598.946 255.859 568.082 249.709 536.926 249.709V138.01C582.765 138.01 628.146 147.048 670.512 164.584C712.857 182.12 751.333 207.842 783.757 240.255C816.181 272.667 841.887 311.147 859.42 353.491ZM783.736 783.745C718.264 849.214 629.498 885.99 536.926 885.99V774.291C599.882 774.291 660.258 749.276 704.766 704.771C749.274 660.245 774.294 599.888 774.294 536.933H886C886 629.516 849.229 718.297 783.757 783.745H783.736ZM138 536.933C138 582.767 147.026 628.165 164.58 670.509C182.112 712.853 207.839 751.333 240.243 783.745C272.646 816.158 311.143 841.859 353.488 859.416C395.833 876.952 441.235 885.99 487.073 885.99V774.291C455.897 774.291 425.033 768.141 396.249 756.215C367.443 744.289 341.279 726.795 319.234 704.771C297.188 682.726 279.717 656.568 267.779 627.771C255.841 598.973 249.706 568.119 249.706 536.933H138ZM353.488 164.584C395.833 147.048 441.214 138.01 487.053 138.01V249.709C455.876 249.709 425.012 255.838 396.228 267.785C367.423 279.711 341.259 297.205 319.213 319.229C297.167 341.274 279.697 367.432 267.758 396.229C255.82 425.027 249.685 455.902 249.685 487.067H138C138 441.233 147.026 395.835 164.58 353.491C182.112 311.147 207.839 272.667 240.243 240.255C272.646 207.842 311.143 182.12 353.488 164.584Z" fill="white"/>
</g>
<defs>
<linearGradient id="paint0_linear_612_617" x1="512" y1="0" x2="512" y2="1024" gradientUnits="userSpaceOnUse">
<stop stop-color="#072B21"/>
<stop offset="1" stop-color="#001B1C"/>
</linearGradient>
<clipPath id="clip0_612_617">
<rect width="1024" height="1024" fill="white"/>
</clipPath>
</defs>
</svg>
